<?xml version="1.0" encoding="utf-8"?>
<!-- Generator: Adobe Illustrator 17.1.0, SVG Export Plug-In . SVG Version: 6.00 Build 0)  -->
<!DOCTYPE svg PUBLIC "-//W3C//DTD SVG 1.1//EN" "http://www.w3.org/Graphics/SVG/1.1/DTD/svg11.dtd">
<svg version="1.1" id="Ebene_1" xmlns="http://www.w3.org/2000/svg" xmlns:xlink="http://www.w3.org/1999/xlink" x="0px" y="0px"
	 viewBox="0 0 200 36" enable-background="new 0 0 200 36" xml:space="preserve">
<polygon fill="#00365F" points="128.5,33.1 146.4,33.1 161.8,19.1 177.2,5.1 159.3,5.1 143.9,19.1 "/>
<polygon fill="#00AEEF" points="177.2,33.1 159.3,33.1 128.5,5.1 146.4,5.1 "/>
<polyline fill="#00365F" points="161.8,19 146.4,33.1 128.5,33.1 143.9,18.7 "/>
<line fill="#00365F" x1="24.9" y1="13.2" x2="24.9" y2="13.2"/>
<polygon fill="#00AEEF" points="21.9,11.3 21.9,8.1 24.5,10.3 24.5,13.5 "/>
<path fill="#00365F" d="M18.7,17.8c-0.7-0.8-1.6-1.4-2.6-1.9c-1-0.5-2.1-0.7-3.3-0.7c-1.7,0-3.3,0.5-4.6,1.4c-0.8,0.6-1.4,1.2-2,2.1
	V4.8H4.8v28h1.5v-3.3c0.5,0.8,1.2,1.5,2,2.1c1.3,0.9,2.8,1.4,4.6,1.4c1.2,0,2.3-0.2,3.2-0.7c1-0.4,1.8-1.1,2.6-1.8
	c0.7-0.8,1.3-1.7,1.7-2.8c0.4-1.1,0.6-2.2,0.6-3.5c0-1.2-0.2-2.4-0.6-3.5C20,19.5,19.4,18.6,18.7,17.8z M19.5,24.1
	c0,1.1-0.2,2.1-0.5,3c-0.3,0.9-0.8,1.7-1.3,2.3c-0.6,0.6-1.3,1.1-2.1,1.5c-0.8,0.3-1.7,0.5-2.7,0.5c-1,0-1.9-0.2-2.7-0.5
	c-0.8-0.3-1.5-0.8-2.1-1.5c-0.6-0.6-1-1.4-1.3-2.3c-0.3-0.9-0.5-1.9-0.5-3c0-1.1,0.2-2.1,0.5-3c0.3-0.9,0.8-1.7,1.3-2.3
	c0.6-0.6,1.3-1.1,2.1-1.5c0.8-0.4,1.7-0.5,2.6-0.5c1,0,1.8,0.2,2.6,0.5c0.8,0.4,1.5,0.9,2.1,1.5c0.6,0.6,1,1.4,1.3,2.3
	C19.3,22.1,19.5,23.1,19.5,24.1z"/>
<rect x="23.1" y="15.4" fill="#00365F" width="1.5" height="17.6"/>
<path fill="#00365F" d="M34.1,30.8c-0.4,0.4-0.9,0.6-1.6,0.6c-0.6,0-1.1-0.2-1.5-0.6c-0.4-0.4-0.6-1-0.6-1.7V17h4.5v-1.5h-4.5V9.7
	h-1.5v5.8h-2.4V17h2.4v12c0,1.1,0.3,2.1,1,2.8c0.7,0.7,1.6,1.1,2.6,1.1c0.5,0,1-0.1,1.4-0.3c0.4-0.2,0.8-0.4,1.1-0.7l0.3-0.3
	l-0.9-1.3L34.1,30.8z"/>
<path fill="#00AEEF" d="M48.2,24.8c-0.5-0.4-1-0.6-1.6-0.8c-0.6-0.2-1.1-0.4-1.7-0.5l-1.1-0.3c-0.4-0.1-0.9-0.2-1.3-0.4
	c-0.4-0.1-0.8-0.3-1.1-0.6c-0.3-0.2-0.6-0.5-0.8-0.9c-0.2-0.4-0.3-0.9-0.3-1.5c0-0.5,0.1-0.9,0.3-1.3c0.2-0.4,0.5-0.7,0.9-0.9
	c0.4-0.2,0.8-0.4,1.3-0.6c0.5-0.1,1-0.2,1.5-0.2c0.8,0,1.6,0.1,2.2,0.3c0.6,0.2,1.3,0.6,1.9,1l0.4,0.3l0.9-1.2L49.3,17
	c-0.7-0.6-1.5-1-2.4-1.3c-0.8-0.3-1.7-0.4-2.7-0.4c-0.6,0-1.3,0.1-1.9,0.3c-0.6,0.2-1.2,0.5-1.8,0.8c-0.5,0.4-1,0.9-1.3,1.4
	c-0.3,0.6-0.5,1.3-0.5,2c0,0.9,0.2,1.7,0.5,2.2c0.3,0.6,0.7,1,1.2,1.4c0.5,0.3,1,0.6,1.5,0.8c0.5,0.2,1,0.3,1.4,0.4l1,0.3
	c0.5,0.1,1,0.3,1.5,0.5c0.5,0.2,0.9,0.4,1.2,0.6c0.3,0.2,0.6,0.5,0.8,0.9c0.2,0.4,0.3,0.9,0.3,1.5c0,0.5-0.1,1-0.4,1.4
	c-0.2,0.4-0.6,0.7-1,0.9c-0.4,0.2-0.9,0.4-1.4,0.5c-0.5,0.1-1.1,0.2-1.6,0.2c-1,0-1.9-0.2-2.7-0.6c-0.9-0.4-1.6-0.9-2.3-1.5L38.6,29
	l-1,1.2l0.3,0.3c0.8,0.8,1.8,1.4,2.8,1.8c1,0.4,2.2,0.6,3.3,0.6c0.6,0,1.3-0.1,2-0.2c0.7-0.2,1.3-0.4,1.8-0.7c0.6-0.4,1-0.8,1.4-1.4
	c0.4-0.6,0.6-1.3,0.6-2.2c0-0.9-0.1-1.6-0.4-2.2C49,25.7,48.6,25.2,48.2,24.8z"/>
<path fill="#00AEEF" d="M63.8,17.3c-0.6-0.6-1.3-1-2-1.4c-0.8-0.3-1.6-0.5-2.5-0.5c-1.3,0-2.4,0.3-3.4,1c-0.6,0.4-1,0.8-1.5,1.3V5
	h-1.5v28h1.5v-11c0-0.7,0.1-1.4,0.4-2c0.2-0.6,0.6-1.1,1-1.6c0.4-0.4,1-0.8,1.6-1c0.6-0.2,1.2-0.4,1.9-0.4c0.7,0,1.3,0.1,1.9,0.4
	c0.6,0.2,1.1,0.6,1.5,1c0.4,0.4,0.8,1,1,1.6c0.2,0.6,0.4,1.3,0.4,2v11h1.6v-11c0-0.9-0.2-1.8-0.5-2.6C64.9,18.6,64.4,17.9,63.8,17.3
	z"/>
<path fill="#00AEEF" d="M81.1,17.6c-0.5-0.7-1.2-1.3-2-1.7c-0.8-0.4-1.9-0.6-3.2-0.6c-0.6,0-1.3,0.1-2.3,0.2c-0.9,0.1-1.9,0.4-3,0.9
	l-0.4,0.2l0.6,1.4l0.4-0.2c0.9-0.4,1.8-0.7,2.6-0.8c0.8-0.1,1.5-0.2,2-0.2c1,0,1.8,0.1,2.4,0.4c0.6,0.3,1.1,0.7,1.4,1.2
	c0.4,0.5,0.6,1.1,0.7,1.9c0.1,0.6,0.2,1.3,0.2,2c-1.8-0.4-3.5-0.6-4.9-0.6c-2.3,0-4,0.5-5.3,1.4c-0.8,0.7-1.4,1.4-1.6,2.3
	c-0.2,0.8-0.4,1.5-0.4,2.2c0,0.5,0.1,1,0.2,1.6c0.2,0.6,0.5,1.2,0.9,1.8c0.4,0.5,1,1,1.7,1.4c0.7,0.4,1.6,0.6,2.7,0.6
	c0.5,0,1.2-0.1,1.8-0.2c0.6-0.1,1.3-0.3,1.9-0.6c0.6-0.3,1.3-0.6,1.8-1.1c0.4-0.3,0.8-0.7,1.1-1.1v2.7h1.5v-9.5
	c0-1.1-0.1-2.2-0.2-3.1C81.9,19.2,81.6,18.3,81.1,17.6z M80.8,23.8v1.5c0,0.5-0.1,1.1-0.2,1.7c-0.1,0.5-0.3,1-0.6,1.5
	c-0.4,0.5-0.8,1-1.3,1.4c-0.5,0.4-1,0.7-1.5,0.9c-0.5,0.2-1.1,0.4-1.6,0.5c-0.5,0.1-1,0.2-1.5,0.2c-0.8,0-1.5-0.1-2-0.4
	c-0.5-0.3-0.9-0.6-1.2-1c-0.3-0.4-0.5-0.8-0.6-1.2c-0.1-0.5-0.2-0.8-0.2-1.2c0-0.5,0.1-1.1,0.3-1.7c0.2-0.6,0.5-1.1,1.1-1.6
	c1-0.7,2.4-1.1,4.3-1.1C77.2,23.2,78.9,23.4,80.8,23.8z"/>
<path fill="#00AEEF" d="M94.6,16.4c-0.4-0.3-0.9-0.5-1.4-0.7c-0.5-0.2-1.1-0.3-1.6-0.3c-1.1,0-2.1,0.3-3,0.9c-0.4,0.3-0.8,0.6-1.1,1
	v-1.7H86v17.3h1.6V21.6c0-0.7,0.1-1.3,0.3-1.8c0.2-0.6,0.5-1,0.9-1.5c0.4-0.4,0.8-0.7,1.3-1c0.9-0.4,1.9-0.5,2.8-0.1
	c0.4,0.1,0.7,0.3,1.1,0.6l0.5,0.3l0.6-1.5L94.6,16.4z"/>
<path fill="#00AEEF" d="M97,23.5h13.9l0-0.5c-0.1-1.2-0.3-2.3-0.7-3.2c-0.4-1-0.9-1.8-1.5-2.5c-0.6-0.7-1.4-1.2-2.3-1.6
	c-0.9-0.4-1.9-0.6-2.9-0.6c-1.2,0-2.3,0.2-3.2,0.7c-1,0.4-1.8,1.1-2.5,1.8c-0.7,0.8-1.3,1.7-1.6,2.8c-0.4,1.1-0.6,2.3-0.6,3.5
	c0,1.3,0.2,2.5,0.6,3.5c0.4,1.1,0.9,2,1.6,2.8c0.7,0.8,1.6,1.4,2.5,1.8c1,0.4,2.1,0.6,3.2,0.6c1.3,0,2.5-0.2,3.6-0.6
	c1.1-0.4,2.1-1,2.9-1.7l0.3-0.3l-1-1.1l-0.3,0.3c-0.7,0.6-1.5,1.1-2.4,1.4c-0.9,0.3-1.9,0.5-3.1,0.5c-1,0-1.8-0.2-2.6-0.5
	c-0.8-0.4-1.5-0.9-2-1.5c-0.6-0.6-1-1.4-1.3-2.3c-0.3-0.9-0.5-1.9-0.5-3L97,23.5C97,23.6,97,23.6,97,23.5z M97.3,22
	c0.2-0.7,0.4-1.3,0.7-1.8c0.4-0.7,0.8-1.3,1.4-1.8c0.5-0.5,1.2-0.9,1.9-1.2c0.7-0.3,1.5-0.4,2.3-0.4c0.9,0,1.7,0.2,2.4,0.5
	c0.7,0.3,1.3,0.7,1.7,1.2c0.5,0.5,0.8,1.1,1.1,1.8c0.2,0.5,0.4,1.1,0.5,1.7H97.3z"/>
<path fill="#00AEEF" d="M124.8,26.2c-0.3-0.6-0.7-1-1.2-1.4c-0.5-0.4-1-0.6-1.6-0.8c-0.6-0.2-1.1-0.4-1.7-0.5l-1.1-0.3
	c-0.4-0.1-0.8-0.2-1.3-0.4c-0.4-0.1-0.8-0.3-1.1-0.6c-0.3-0.2-0.6-0.5-0.8-0.9c-0.2-0.4-0.3-0.9-0.3-1.5c0-0.5,0.1-0.9,0.3-1.3
	c0.2-0.4,0.5-0.7,0.9-0.9c0.4-0.2,0.8-0.4,1.3-0.6c0.5-0.1,1-0.2,1.5-0.2c0.8,0,1.6,0.1,2.2,0.3c0.6,0.2,1.3,0.6,1.9,1l0.4,0.3
	l0.9-1.2l-0.3-0.3c-0.7-0.6-1.5-1-2.4-1.3c-0.8-0.3-1.7-0.4-2.7-0.4c-0.6,0-1.3,0.1-1.9,0.3c-0.6,0.2-1.2,0.5-1.8,0.8
	c-0.5,0.4-1,0.9-1.3,1.4c-0.3,0.6-0.5,1.3-0.5,2c0,0.9,0.2,1.7,0.5,2.2c0.3,0.6,0.7,1,1.2,1.4c0.5,0.3,1,0.6,1.5,0.8
	c0.5,0.2,1,0.3,1.4,0.4l1,0.3c0.5,0.2,1,0.3,1.5,0.5c0.5,0.2,0.9,0.4,1.2,0.6c0.3,0.2,0.6,0.5,0.8,0.9c0.2,0.4,0.3,0.9,0.3,1.5
	c0,0.5-0.1,1-0.4,1.4c-0.2,0.4-0.6,0.7-1,0.9c-0.4,0.2-0.9,0.4-1.4,0.5c-1.5,0.3-3,0.2-4.3-0.4c-0.9-0.4-1.6-0.9-2.3-1.5l-0.3-0.3
	l-1,1.2l0.3,0.3c0.8,0.8,1.8,1.4,2.8,1.8c1,0.4,2.2,0.6,3.3,0.6c0.6,0,1.3-0.1,2-0.2c0.7-0.2,1.3-0.4,1.8-0.7c0.6-0.4,1-0.8,1.4-1.4
	c0.4-0.6,0.6-1.3,0.6-2.2C125.3,27.5,125.1,26.8,124.8,26.2z"/>
</svg>
