<?xml version="1.0" encoding="utf-8"?>
<!-- Generator: Adobe Illustrator 17.1.0, SVG Export Plug-In . SVG Version: 6.00 Build 0)  -->
<!DOCTYPE svg PUBLIC "-//W3C//DTD SVG 1.1//EN" "http://www.w3.org/Graphics/SVG/1.1/DTD/svg11.dtd">
<svg version="1.1" id="Ebene_1" xmlns="http://www.w3.org/2000/svg" xmlns:xlink="http://www.w3.org/1999/xlink" x="0px" y="0px"
	 viewBox="0 0 200 65.5" enable-background="new 0 0 200 65.5" xml:space="preserve">
<g>
	<g>
		<path fill="#009EE2" d="M189.1,35.9h-0.8v-0.3h2v0.3h-0.8v2.4h-0.4V35.9z"/>
		<path fill="#009EE2" d="M192.8,37.1c0-0.4,0-0.8,0-1.2h0c-0.1,0.3-0.2,0.6-0.3,1l-0.5,1.3h-0.3l-0.4-1.3c-0.1-0.4-0.2-0.7-0.3-1h0
			c0,0.3,0,0.8-0.1,1.2l-0.1,1.1h-0.3l0.2-2.7h0.4l0.5,1.3c0.1,0.3,0.2,0.6,0.3,0.9h0c0.1-0.3,0.2-0.6,0.3-0.9l0.5-1.3h0.4l0.2,2.7
			h-0.3L192.8,37.1z"/>
	</g>
	<line fill="#009EE2" x1="79.2" y1="32.8" x2="79.2" y2="32.8"/>
	<polygon fill="#009EE2" points="76.7,30.6 76.7,27.1 79.6,29.6 79.6,33.1 	"/>
	<path fill="#89B326" d="M73.2,37.9c-0.8-0.9-1.8-1.6-2.8-2.1c-1.1-0.5-2.3-0.8-3.6-0.8c-1.9,0-3.6,0.5-5.1,1.6
		c-0.9,0.6-1.6,1.4-2.2,2.3V23.4h-1.7v31.1h1.7v-3.6c0.6,0.9,1.3,1.7,2.2,2.3c1.5,1,3.2,1.6,5.1,1.6c1.3,0,2.5-0.2,3.6-0.7
		c1.1-0.5,2-1.2,2.8-2.1c0.8-0.9,1.4-1.9,1.9-3.1c0.4-1.2,0.7-2.5,0.7-3.9c0-1.4-0.2-2.7-0.7-3.9C74.6,39.8,74,38.8,73.2,37.9z
		 M74,44.9c0,1.2-0.2,2.3-0.5,3.3c-0.4,1-0.9,1.8-1.5,2.5c-0.6,0.7-1.4,1.2-2.3,1.6c-0.9,0.4-1.9,0.6-3,0.6c-1.1,0-2.1-0.2-3-0.6
		c-0.9-0.4-1.7-0.9-2.3-1.6c-0.6-0.7-1.1-1.6-1.5-2.5c-0.4-1-0.5-2.1-0.5-3.3c0-1.2,0.2-2.3,0.5-3.3c0.4-1,0.9-1.9,1.5-2.6
		c0.6-0.7,1.4-1.3,2.3-1.7c0.9-0.4,1.9-0.6,2.9-0.6c1.1,0,2.1,0.2,2.9,0.6c0.9,0.4,1.7,1,2.3,1.7c0.6,0.7,1.1,1.6,1.5,2.6
		C73.8,42.6,74,43.7,74,44.9z"/>
	<rect x="78.1" y="35.2" fill="#89B326" width="1.7" height="19.5"/>
	<path fill="#89B326" d="M90.3,52.4c-0.5,0.4-1.1,0.7-1.7,0.7c-0.7,0-1.2-0.2-1.7-0.7c-0.4-0.5-0.7-1.1-0.7-1.9V37h5v-1.7h-5v-6.4
		h-1.7v6.4h-2.7V37h2.7v13.4c0,1.2,0.4,2.3,1.1,3.1c0.8,0.8,1.7,1.2,2.9,1.2c0.5,0,1.1-0.1,1.5-0.3c0.5-0.2,0.9-0.4,1.3-0.7l0.4-0.3
		l-1-1.5L90.3,52.4z"/>
	<path fill="#009EE2" d="M104.5,45.7c-0.5-0.4-1.1-0.7-1.8-0.9c-0.6-0.2-1.3-0.4-1.9-0.6l-1.2-0.3c-0.5-0.1-1-0.3-1.4-0.4
		c-0.4-0.2-0.9-0.4-1.2-0.6c-0.3-0.2-0.6-0.6-0.9-1c-0.2-0.4-0.3-1-0.3-1.7c0-0.6,0.1-1,0.4-1.5c0.3-0.4,0.6-0.8,1-1
		c0.4-0.3,0.9-0.5,1.4-0.6c0.5-0.1,1.1-0.2,1.6-0.2c0.9,0,1.8,0.1,2.5,0.4c0.7,0.2,1.4,0.6,2.1,1.1l0.4,0.3l1-1.4l-0.4-0.3
		c-0.8-0.7-1.7-1.2-2.6-1.5c-0.9-0.3-1.9-0.4-3-0.4c-0.7,0-1.4,0.1-2.2,0.3c-0.7,0.2-1.4,0.5-2,0.9c-0.6,0.4-1.1,1-1.4,1.6
		c-0.4,0.6-0.6,1.4-0.6,2.3c0,1,0.2,1.8,0.6,2.5c0.4,0.6,0.8,1.1,1.3,1.5c0.5,0.4,1.1,0.7,1.7,0.9c0.6,0.2,1.1,0.3,1.6,0.5l1.2,0.3
		c0.6,0.2,1.2,0.3,1.7,0.5c0.5,0.2,1,0.4,1.3,0.7c0.4,0.3,0.6,0.6,0.8,1c0.2,0.4,0.3,1,0.3,1.7c0,0.6-0.1,1.1-0.4,1.5
		c-0.3,0.4-0.6,0.8-1.1,1c-0.4,0.3-1,0.5-1.5,0.6C101,53,100.4,53,99.9,53c-1.1,0-2.1-0.2-3.1-0.6c-1-0.4-1.8-1-2.6-1.7l-0.4-0.4
		l-1.1,1.3L93,52c0.9,0.9,2,1.6,3.1,2.1c1.2,0.5,2.4,0.7,3.7,0.7c0.7,0,1.4-0.1,2.2-0.2c0.8-0.2,1.4-0.4,2.1-0.8
		c0.6-0.4,1.1-0.9,1.5-1.5c0.4-0.7,0.6-1.5,0.6-2.4c0-1-0.2-1.8-0.5-2.4C105.5,46.6,105,46.1,104.5,45.7z"/>
	<path fill="#009EE2" d="M121.5,37.4c-0.6-0.6-1.4-1.2-2.3-1.5c-0.9-0.4-1.8-0.6-2.8-0.6c-1.4,0-2.7,0.4-3.8,1.1
		c-0.6,0.4-1.2,0.9-1.6,1.4V23.6h-1.7v31.1h1.7V42.5c0-0.8,0.1-1.5,0.4-2.2c0.3-0.7,0.7-1.3,1.2-1.8c0.5-0.5,1.1-0.9,1.7-1.2
		c0.7-0.3,1.4-0.4,2.1-0.4c0.8,0,1.5,0.1,2.1,0.4c0.7,0.3,1.2,0.7,1.7,1.2c0.5,0.5,0.9,1.1,1.2,1.8c0.3,0.7,0.4,1.4,0.4,2.2v12.2
		h1.7V42.5c0-1-0.2-2-0.5-2.8C122.6,38.8,122.1,38,121.5,37.4z"/>
	<path fill="#009EE2" d="M139.6,37.6c-0.5-0.8-1.3-1.5-2.2-1.9c-0.9-0.4-2.1-0.7-3.6-0.7c-0.7,0-1.5,0.1-2.5,0.2
		c-1,0.2-2.2,0.5-3.4,1l-0.5,0.2l0.7,1.6l0.5-0.2c1-0.5,2-0.8,2.9-0.9c0.9-0.1,1.7-0.2,2.2-0.2c1.1,0,2,0.2,2.7,0.5
		c0.7,0.3,1.2,0.7,1.6,1.3c0.4,0.6,0.7,1.3,0.8,2.1c0.1,0.7,0.2,1.4,0.3,2.2c-2.1-0.4-3.9-0.6-5.5-0.6c-2.5,0-4.5,0.5-5.9,1.6
		c-0.9,0.7-1.5,1.6-1.8,2.5c-0.3,0.9-0.4,1.7-0.4,2.4c0,0.5,0.1,1.1,0.3,1.8c0.2,0.7,0.5,1.4,1,2c0.5,0.6,1.1,1.1,1.9,1.6
		c0.8,0.4,1.8,0.7,3.1,0.7c0.6,0,1.3-0.1,2-0.2c0.7-0.1,1.4-0.4,2.1-0.7c0.7-0.3,1.4-0.7,2.1-1.2c0.4-0.3,0.9-0.7,1.2-1.2v3h1.7V44
		c0-1.3-0.1-2.4-0.3-3.5C140.5,39.4,140.1,38.4,139.6,37.6z M139.2,44.6v1.7c0,0.6-0.1,1.2-0.2,1.9c-0.1,0.6-0.3,1.2-0.7,1.7
		c-0.4,0.6-0.9,1.1-1.4,1.5c-0.5,0.4-1.1,0.8-1.7,1c-0.6,0.3-1.2,0.4-1.8,0.6c-0.6,0.1-1.1,0.2-1.7,0.2c-0.9,0-1.7-0.2-2.2-0.5
		c-0.6-0.3-1-0.7-1.4-1.1c-0.3-0.4-0.6-0.9-0.7-1.4c-0.1-0.5-0.2-0.9-0.2-1.3c0-0.6,0.1-1.2,0.3-1.9c0.2-0.6,0.6-1.2,1.2-1.7
		c1.1-0.8,2.7-1.3,4.8-1.3C135.2,43.9,137.1,44.1,139.2,44.6z"/>
	<path fill="#009EE2" d="M153.5,36.3c-0.5-0.3-1-0.6-1.6-0.8c-0.6-0.2-1.2-0.3-1.8-0.3c-1.2,0-2.3,0.3-3.3,1
		c-0.5,0.3-0.9,0.7-1.3,1.1v-1.9h-1.7v19.2h1.7V42.1c0-0.7,0.1-1.4,0.4-2c0.2-0.6,0.6-1.2,1-1.6c0.4-0.5,0.9-0.8,1.5-1.1
		c1-0.4,2.1-0.5,3.1-0.2c0.4,0.2,0.8,0.4,1.2,0.6l0.5,0.4l0.6-1.7L153.5,36.3z"/>
	<path fill="#009EE2" d="M155.4,44.3h15.5l0-0.5c-0.1-1.3-0.4-2.5-0.8-3.6c-0.4-1.1-1-2-1.7-2.7c-0.7-0.8-1.6-1.3-2.5-1.8
		c-1-0.4-2.1-0.6-3.2-0.6c-1.3,0-2.5,0.2-3.6,0.7c-1.1,0.5-2,1.2-2.8,2.1c-0.8,0.9-1.4,1.9-1.8,3.1c-0.4,1.2-0.6,2.5-0.6,3.9
		c0,1.4,0.2,2.7,0.6,3.9c0.4,1.2,1,2.2,1.8,3.1c0.8,0.9,1.7,1.6,2.8,2c1.1,0.5,2.3,0.7,3.6,0.7c1.4,0,2.8-0.2,4-0.7
		c1.2-0.4,2.3-1.1,3.2-1.9l0.4-0.3l-1.1-1.3l-0.4,0.3c-0.7,0.7-1.6,1.2-2.7,1.6c-1,0.4-2.2,0.6-3.4,0.6c-1.1,0-2-0.2-2.9-0.6
		c-0.9-0.4-1.6-0.9-2.3-1.6c-0.6-0.7-1.1-1.6-1.5-2.5c-0.4-1-0.5-2.1-0.5-3.3L155.4,44.3C155.4,44.3,155.4,44.3,155.4,44.3z
		 M155.7,42.6c0.2-0.7,0.4-1.4,0.7-2c0.4-0.8,0.9-1.5,1.5-2c0.6-0.6,1.3-1,2.1-1.3c0.8-0.3,1.7-0.5,2.6-0.5c1,0,1.9,0.2,2.7,0.5
		c0.8,0.3,1.4,0.8,1.9,1.4c0.5,0.6,0.9,1.3,1.2,2c0.2,0.6,0.4,1.2,0.5,1.9H155.7z"/>
	<path fill="#009EE2" d="M185.3,47.3c-0.3-0.6-0.8-1.2-1.3-1.6c-0.5-0.4-1.1-0.7-1.8-0.9c-0.6-0.2-1.3-0.4-1.9-0.6l-1.2-0.3
		c-0.5-0.1-0.9-0.3-1.4-0.4c-0.4-0.2-0.9-0.4-1.2-0.6c-0.3-0.2-0.6-0.6-0.9-1c-0.2-0.4-0.3-1-0.3-1.7c0-0.6,0.1-1,0.4-1.5
		c0.2-0.4,0.6-0.8,1-1c0.4-0.3,0.9-0.5,1.4-0.6c0.5-0.1,1.1-0.2,1.6-0.2c0.9,0,1.8,0.1,2.5,0.4c0.7,0.2,1.4,0.6,2.1,1.1l0.4,0.3
		l1-1.4l-0.4-0.3c-0.8-0.7-1.7-1.2-2.6-1.5c-0.9-0.3-1.9-0.4-3-0.4c-0.7,0-1.4,0.1-2.2,0.3c-0.7,0.2-1.4,0.5-2,0.9
		c-0.6,0.4-1.1,1-1.4,1.6c-0.4,0.6-0.6,1.4-0.6,2.3c0,1,0.2,1.8,0.6,2.5c0.4,0.6,0.8,1.1,1.3,1.5c0.5,0.4,1.1,0.7,1.7,0.9
		c0.6,0.2,1.1,0.3,1.6,0.5l1.2,0.3c0.6,0.2,1.2,0.3,1.7,0.5c0.5,0.2,0.9,0.4,1.3,0.7c0.4,0.3,0.6,0.6,0.8,1c0.2,0.4,0.3,1,0.3,1.7
		c0,0.6-0.1,1.1-0.4,1.5c-0.3,0.4-0.6,0.8-1.1,1c-0.4,0.3-1,0.5-1.5,0.6c-1.6,0.4-3.3,0.2-4.8-0.4c-1-0.4-1.8-1-2.6-1.7l-0.4-0.4
		l-1.1,1.3l0.3,0.3c0.9,0.9,2,1.6,3.1,2.1c1.2,0.5,2.4,0.7,3.7,0.7c0.7,0,1.4-0.1,2.2-0.2c0.8-0.2,1.5-0.4,2.1-0.8
		c0.6-0.4,1.1-0.9,1.5-1.5c0.4-0.7,0.6-1.5,0.6-2.4C185.8,48.7,185.6,47.9,185.3,47.3z"/>
</g>
<g>
	<path fill="#009EE2" d="M19.4,40.7L6.5,27.9c0,6.5,0,11.1,0,15.4h11.8C18.5,42.3,18.9,41.5,19.4,40.7z"/>
	<path fill="#009EE2" d="M18.3,45.8H6.5c0.3,4.1,1.9,7.9,4.5,10.9l8.4-8.4C18.8,47.6,18.5,46.7,18.3,45.8z"/>
	<path fill="#009EE2" d="M37,30.6c-2.9-2.6-6.7-4.2-10.9-4.5v11.8c0.9,0.2,1.8,0.5,2.5,1L37,30.6z"/>
	<path fill="#009EE2" d="M30.6,48.1l8.4,8.4c2.5-2.9,4.1-6.6,4.4-10.7H31.5C31.3,46.6,31,47.4,30.6,48.1z"/>
	<path fill="#009EE2" d="M31.5,43.3h11.8c-0.3-4.1-1.9-7.9-4.5-10.9l-8.4,8.4C31,41.5,31.3,42.4,31.5,43.3z"/>
	<path fill="#009EE2" d="M12.8,58.4c2.9,2.6,6.7,4.2,10.9,4.5V51.1c-0.9-0.2-1.8-0.5-2.5-1L12.8,58.4z"/>
	<path fill="#009EE2" d="M26.2,51.1v11.8c4.2-0.3,7.9-1.9,10.9-4.5l-8.3-8.3C27.9,50.6,27.1,50.9,26.2,51.1z"/>
	<path fill="#009EE2" d="M6.5,24c3.1,3.5,12.9,13.8,14.8,14.8c0.7,0.4,1.5-0.8,2.3-0.9c0-3.3,0-19.3,0-19.3L6.5,3.4
		C6.5,3.4,6.5,23.5,6.5,24z"/>
</g>
</svg>
