<?xml version="1.0" encoding="UTF-8" standalone="no"?>
<!-- Generator: Adobe Illustrator 17.1.0, SVG Export Plug-In . SVG Version: 6.00 Build 0)  -->

<svg
   xmlns:dc="http://purl.org/dc/elements/1.1/"
   xmlns:cc="http://creativecommons.org/ns#"
   xmlns:rdf="http://www.w3.org/1999/02/22-rdf-syntax-ns#"
   xmlns:svg="http://www.w3.org/2000/svg"
   xmlns="http://www.w3.org/2000/svg"
   xmlns:sodipodi="http://sodipodi.sourceforge.net/DTD/sodipodi-0.dtd"
   xmlns:inkscape="http://www.inkscape.org/namespaces/inkscape"
   version="1.1"
   id="Ebene_1"
   x="0px"
   y="0px"
   viewBox="0 0 49.5 65.5"
   enable-background="new 0 0 49.5 65.5"
   xml:space="preserve"
   inkscape:version="0.48.5 r10040"
   width="100%"
   height="100%"
   sodipodi:docname="logo-ico.svg"><metadata
     id="metadata3087"><rdf:RDF><cc:Work
         rdf:about=""><dc:format>image/svg+xml</dc:format><dc:type
           rdf:resource="http://purl.org/dc/dcmitype/StillImage" /><dc:title></dc:title></cc:Work></rdf:RDF></metadata><defs
     id="defs3085" /><sodipodi:namedview
     pagecolor="#ffffff"
     bordercolor="#666666"
     borderopacity="1"
     objecttolerance="10"
     gridtolerance="10"
     guidetolerance="10"
     inkscape:pageopacity="0"
     inkscape:pageshadow="2"
     inkscape:window-width="1458"
     inkscape:window-height="820"
     id="namedview3083"
     showgrid="false"
     inkscape:zoom="8.8396947"
     inkscape:cx="-11.16076"
     inkscape:cy="21.567821"
     inkscape:window-x="156"
     inkscape:window-y="88"
     inkscape:window-maximized="0"
     inkscape:current-layer="Ebene_1" /><g
     id="g3065"
     style="fill:#00adee;fill-opacity:1"><path
       fill="#FFFFFF"
       d="M19.4,40.7L6.5,27.9c0,6.5,0,11.1,0,15.4h11.8C18.5,42.3,18.9,41.5,19.4,40.7z"
       id="path3067"
       style="fill:#00adee;fill-opacity:1" /><path
       fill="#FFFFFF"
       d="M18.3,45.8H6.5c0.3,4.1,1.9,7.9,4.5,10.9l8.4-8.4C18.8,47.6,18.5,46.7,18.3,45.8z"
       id="path3069"
       style="fill:#00adee;fill-opacity:1" /><path
       fill="#FFFFFF"
       d="M37,30.6c-2.9-2.6-6.7-4.2-10.9-4.5v11.8c0.9,0.2,1.8,0.5,2.5,1L37,30.6z"
       id="path3071"
       style="fill:#00adee;fill-opacity:1" /><path
       fill="#FFFFFF"
       d="M30.6,48.1l8.4,8.4c2.5-2.9,4.1-6.6,4.4-10.7H31.5C31.3,46.6,31,47.4,30.6,48.1z"
       id="path3073"
       style="fill:#00adee;fill-opacity:1" /><path
       fill="#FFFFFF"
       d="M31.5,43.3h11.8c-0.3-4.1-1.9-7.9-4.5-10.9l-8.4,8.4C31,41.5,31.3,42.4,31.5,43.3z"
       id="path3075"
       style="fill:#00adee;fill-opacity:1" /><path
       fill="#FFFFFF"
       d="M12.8,58.4c2.9,2.6,6.7,4.2,10.9,4.5V51.1c-0.9-0.2-1.8-0.5-2.5-1L12.8,58.4z"
       id="path3077"
       style="fill:#00adee;fill-opacity:1" /><path
       fill="#FFFFFF"
       d="M26.2,51.1v11.8c4.2-0.3,7.9-1.9,10.9-4.5l-8.3-8.3C27.9,50.6,27.1,50.9,26.2,51.1z"
       id="path3079"
       style="fill:#00adee;fill-opacity:1" /><path
       fill="#FFFFFF"
       d="M6.5,24c3.1,3.5,12.9,13.8,14.8,14.8c0.7,0.4,1.5-0.8,2.3-0.9c0-3.3,0-19.3,0-19.3L6.5,3.4   C6.5,3.4,6.5,23.5,6.5,24z"
       id="path3081"
       style="fill:#00adee;fill-opacity:1" /></g></svg>